<svg xmlns="http://www.w3.org/2000/svg" width="87" height="29" viewBox="0 0 87 29">
    <g fill="none" fill-rule="evenodd">
        <path fill="#999" d="M0 5.382h7.83c1.46 0 2.921.217 4.382.65a11.726 11.726 0 0 1 3.964 2.048c1.181.931 2.137 2.123 2.867 3.575s1.096 3.196 1.096 5.233c0 1.971-.365 3.678-1.096 5.119-.73 1.44-1.686 2.632-2.867 3.575a12.283 12.283 0 0 1-3.964 2.113c-1.46.465-2.921.698-4.382.698H0V5.382zm3.19 20.184h3.996c1.374 0 2.647-.195 3.818-.585 1.17-.39 2.18-.954 3.029-1.69a7.563 7.563 0 0 0 1.981-2.73c.473-1.084.71-2.308.71-3.673 0-1.43-.237-2.687-.71-3.77-.472-1.084-1.133-1.989-1.981-2.714-.849-.726-1.858-1.279-3.03-1.658-1.17-.38-2.443-.569-3.817-.569H3.19v17.389zm30.74-6.24a5.855 5.855 0 0 0-.306-1.707 3.925 3.925 0 0 0-.806-1.381 3.787 3.787 0 0 0-1.32-.927c-.527-.227-1.145-.341-1.854-.341a4.86 4.86 0 0 0-3.302 1.268c-.42.39-.763.85-1.031 1.38-.269.532-.425 1.1-.468 1.707h9.087zm3.061 1.234v.52c0 .174-.01.347-.032.52H24.843c.022.65.167 1.263.435 1.837a4.83 4.83 0 0 0 1.08 1.495 5 5 0 0 0 1.563.991 4.99 4.99 0 0 0 1.885.358c1.03 0 1.922-.228 2.674-.683.752-.455 1.343-1.007 1.772-1.657l2.127 1.722c-.816 1.084-1.778 1.88-2.884 2.389-1.106.51-2.336.764-3.69.764-1.16 0-2.234-.195-3.222-.585a7.438 7.438 0 0 1-2.545-1.642c-.71-.704-1.268-1.554-1.676-2.551-.408-.997-.612-2.102-.612-3.315 0-1.192.199-2.292.596-3.3.398-1.007.95-1.868 1.66-2.583a7.591 7.591 0 0 1 2.513-1.674 8.078 8.078 0 0 1 3.125-.601c1.117 0 2.132.184 3.045.552.913.369 1.687.9 2.32 1.593.634.693 1.123 1.533 1.467 2.519.343.986.515 2.096.515 3.331zm5.349-7.573c.043.39.075.83.097 1.317.021.487.032.894.032 1.219h.097c.193-.412.456-.797.789-1.154a5.728 5.728 0 0 1 1.144-.943 5.679 5.679 0 0 1 3.029-.861c.988 0 1.836.168 2.545.504a5.16 5.16 0 0 1 1.773 1.348 5.47 5.47 0 0 1 1.047 1.983c.225.758.338 1.571.338 2.438v9.555h-3.029v-8.548c0-.628-.048-1.224-.145-1.787a4.328 4.328 0 0 0-.531-1.495 2.895 2.895 0 0 0-1.064-1.04c-.45-.26-1.03-.39-1.74-.39-1.203 0-2.186.46-2.948 1.38-.763.922-1.144 2.151-1.144 3.69v8.19h-3.029v-12.09c0-.412-.01-.943-.032-1.593a32.998 32.998 0 0 0-.097-1.723h2.868zm17.464 15.406h-3.028V12.987h3.028v15.406zM60.32 7.43c0 .563-.199 1.029-.596 1.397a2.035 2.035 0 0 1-1.434.553c-.559 0-1.031-.19-1.418-.57-.386-.378-.58-.839-.58-1.38 0-.564.194-1.035.58-1.414.387-.38.86-.569 1.418-.569.559 0 1.036.19 1.434.569.397.379.596.85.596 1.414zm6.122 8.093c.387-.824 1.004-1.523 1.853-2.097.849-.574 1.853-.861 3.013-.861 1.03 0 1.96.238 2.787.715s1.477 1.267 1.95 2.373c.515-.997 1.235-1.76 2.158-2.292a5.973 5.973 0 0 1 3.03-.796c.987 0 1.836.168 2.545.504a5.16 5.16 0 0 1 1.772 1.348 5.47 5.47 0 0 1 1.047 1.983c.226.758.339 1.571.339 2.438v9.555h-3.03v-8.548c0-.628-.053-1.224-.16-1.787a4.576 4.576 0 0 0-.548-1.495 2.975 2.975 0 0 0-1.031-1.04c-.43-.26-.978-.39-1.644-.39-.687 0-1.278.146-1.772.438a3.7 3.7 0 0 0-1.208 1.138 4.823 4.823 0 0 0-.677 1.576c-.14.585-.21 1.181-.21 1.788v8.32h-3.028v-9.165c0-.607-.054-1.16-.161-1.658a3.386 3.386 0 0 0-.548-1.284 2.72 2.72 0 0 0-.999-.845c-.408-.206-.913-.308-1.514-.308-1.117 0-2.047.46-2.788 1.38-.74.922-1.111 2.151-1.111 3.69v8.19h-3.03v-12.09c0-.412-.01-.943-.031-1.593a32.998 32.998 0 0 0-.097-1.723h2.868a28.557 28.557 0 0 1 .129 2.535h.096z"/>
        <ellipse cx="19.574" cy="2.383" fill="#00DBA3" rx="2.363" ry="2.383"/>
    </g>
</svg>
